<svg id="OBJECTS" xmlns="http://www.w3.org/2000/svg" viewBox="0 0 163.96 232.71"><defs><style>.cls-1{fill:#a1c2a7;}.cls-2,.cls-5{fill:#79a57f;}.cls-3,.cls-4{fill:#1b2026;}.cls-4{font-size:30.85px;font-family:Montserrat-ExtraBold, Montserrat ExtraBold;font-weight:800;letter-spacing:0.1em;}.cls-5{font-size:11.49px;font-family:Montserrat-SemiBold, Montserrat SemiBold;font-weight:600;letter-spacing:0.3em;}.cls-6{letter-spacing:0.22em;}.cls-7{letter-spacing:0.31em;}.cls-8{fill:none;stroke:#1b2026;stroke-miterlimit:10;stroke-width:3px;}</style></defs><path class="cls-1" d="M216.7,184.62c9.71-5.63,15.69-37.78-36-38.61C180.73,146,178.1,207,216.7,184.62Z" transform="translate(-168.58 -134.39)"/><path class="cls-2" d="M299,247.27c-9.44,4.48-25.49,22.68-43,9s-32.82-29.77-52.41-8l47.68,47Z" transform="translate(-168.58 -134.39)"/><path class="cls-1" d="M203.66,247.27c9.44,4.48,40.34,32.85,50.18,13s25.6-33.73,45.19-12l-47.69,47Z" transform="translate(-168.58 -134.39)"/><polygon class="cls-3" points="28.6 110.58 0 81.98 20.06 61.92 22.33 64.19 4.55 81.98 30.87 108.3 28.6 110.58"/><polygon class="cls-3" points="81.98 163.96 28.6 110.58 30.87 108.3 81.98 159.41 159.41 81.98 81.98 4.55 67.48 19.05 65.2 16.77 81.98 0 163.96 81.98 81.98 163.96"/><text class="cls-4" transform="translate(19.76 198.41)">SWIGGY</text><text class="cls-5" transform="translate(1.87 213.65) rotate(0.03)">FRESH AND N<tspan class="cls-6" x="103.22" y="0">A</tspan><tspan x="112.81" y="0">TU</tspan><tspan class="cls-7" x="132.86" y="0">R</tspan><tspan x="142.55" y="0">AL</tspan></text><line class="cls-8" x1="19.51" y1="12.68" x2="58.5" y2="53.9"/><path class="cls-8" d="M222.06,153.14a20.51,20.51,0,1,1-29.81,28.19c-7.78-8.23-4.16-34.26-4.16-34.26S214.27,144.91,222.06,153.14Z" transform="translate(-168.58 -134.39)"/><polyline class="cls-8" points="19.04 31.5 37.93 32.24 39.69 13.3"/><polyline class="cls-8" points="20.74 41.6 47.74 42.52 49.95 16.07"/><polyline class="cls-8" points="18.94 23.4 30.18 23.96 31.35 12.46"/><path class="cls-3" d="M258.59,208.73a1.6,1.6,0,0,1,2.27,0l16.2,16.19a1.61,1.61,0,0,1-2.28,2.28L258.59,211A1.6,1.6,0,0,1,258.59,208.73Z" transform="translate(-168.58 -134.39)"/><path class="cls-3" d="M254.29,213a1.61,1.61,0,0,1,2.28,0l16.2,16.19a1.61,1.61,0,1,1-2.28,2.28l-16.2-16.19A1.62,1.62,0,0,1,254.29,213Z" transform="translate(-168.58 -134.39)"/><path class="cls-3" d="M250,217.31a1.61,1.61,0,0,1,2.28,0l16.19,16.19a1.61,1.61,0,1,1-2.27,2.28L250,219.59A1.61,1.61,0,0,1,250,217.31Z" transform="translate(-168.58 -134.39)"/><path class="cls-3" d="M213.23,174.35a1.61,1.61,0,0,1,2.28,0l33.11,33.11a1.61,1.61,0,1,1-2.28,2.28l-33.11-33.11A1.61,1.61,0,0,1,213.23,174.35Z" transform="translate(-168.58 -134.39)"/><path class="cls-3" d="M245.71,221.6a1.61,1.61,0,0,1,2.28,0l16.19,16.2a1.61,1.61,0,0,1,0,2.28,1.63,1.63,0,0,1-2.28,0l-16.19-16.2A1.61,1.61,0,0,1,245.71,221.6Z" transform="translate(-168.58 -134.39)"/><path class="cls-3" d="M246.48,207.6l.17-.15a10.78,10.78,0,0,1,14,1.1,1.61,1.61,0,0,1-2.28,2.28,7.54,7.54,0,0,0-9.82-.8,1.61,1.61,0,0,1-2.11-2.43Z" transform="translate(-168.58 -134.39)"/><path class="cls-3" d="M244.44,209.9a1.61,1.61,0,0,1,2.49,2,7.58,7.58,0,0,0,.88,9.51,1.61,1.61,0,1,1-2.28,2.27,10.8,10.8,0,0,1-1.29-13.55A1.69,1.69,0,0,1,244.44,209.9Z" transform="translate(-168.58 -134.39)"/><line class="cls-8" x1="60.48" y1="231.21" x2="84.25" y2="231.21"/></svg>