<?xml version="1.0" standalone="no"?>
<!DOCTYPE svg PUBLIC "-//W3C//DTD SVG 20010904//EN"
 "http://www.w3.org/TR/2001/REC-SVG-20010904/DTD/svg10.dtd">
<svg version="1.0" xmlns="http://www.w3.org/2000/svg"
 width="840.000000pt" height="448.000000pt" viewBox="0 0 840.000000 448.000000"
 preserveAspectRatio="xMidYMid meet">
<metadata>
Created by potrace 1.16, written by Peter Selinger 2001-2019
</metadata>
<g transform="translate(0.000000,448.000000) scale(0.100000,-0.100000)"
fill="#000000" stroke="none">
<path d="M4665 4055 c-22 -8 -60 -15 -85 -15 -45 0 -193 -37 -675 -170 -249
-69 -321 -96 -356 -136 -22 -25 -127 -210 -175 -308 l-39 -78 -116 -58 c-252
-127 -519 -294 -739 -462 -107 -83 -134 -117 -151 -192 -36 -162 96 -316 272
-316 65 0 69 -1 69 -22 1 -13 9 -46 18 -75 l18 -51 -67 -136 c-113 -228 -209
-561 -209 -723 0 -98 20 -160 67 -207 75 -75 220 -99 318 -52 52 24 138 107
149 144 10 30 33 28 50 -5 8 -16 28 -41 45 -58 l30 -30 -6 -90 c-7 -106 11
-183 58 -252 23 -32 47 -51 104 -78 49 -24 75 -42 75 -53 0 -35 49 -120 89
-154 23 -19 67 -43 97 -53 65 -20 198 -23 265 -5 23 7 221 85 439 175 566 233
865 342 1317 478 194 59 255 90 292 150 51 83 35 194 -38 267 -74 73 -141 83
-376 55 -145 -18 -135 -17 -135 -5 0 6 4 10 10 10 5 0 84 28 175 62 190 70
237 103 275 190 38 88 8 190 -72 248 l-41 30 80 0 c120 0 263 51 325 117 83
87 76 260 -13 325 -27 20 -29 27 -29 86 0 47 -6 77 -22 110 -25 49 -98 119
-135 128 -13 4 -23 9 -23 13 0 10 62 57 105 79 156 80 175 304 34 398 -94 63
-439 198 -684 268 -71 21 -144 42 -161 47 -28 9 -35 20 -69 107 -72 190 -128
267 -213 296 -56 19 -95 20 -147 1z m-539 -1171 c-11 -28 -109 -165 -154 -215
-38 -43 -49 -49 -82 -49 -30 0 -40 4 -45 21 -13 39 5 87 49 136 66 74 252 159
232 107z m1010 -229 c18 -12 24 -24 24 -52 0 -34 -11 -48 -150 -187 -82 -82
-150 -151 -150 -152 0 -8 216 -26 272 -22 54 4 71 2 75 -9 9 -22 -35 -61 -96
-85 -50 -19 -77 -22 -241 -24 -102 -2 -213 -5 -246 -9 -47 -4 -64 -2 -74 10
-15 18 -1 64 35 111 19 25 195 168 344 281 12 9 -16 10 -125 6 -153 -6 -178
-1 -195 44 -19 51 15 83 81 76 19 -2 98 5 175 16 154 22 234 21 271 -4z m693
1 c5 -13 1 -41 -11 -76 -48 -139 -41 -165 50 -179 92 -14 94 -47 4 -82 -74
-29 -149 -29 -197 0 l-36 21 -45 -31 c-142 -98 -294 -121 -351 -54 -34 38 -32
119 3 171 38 58 72 91 139 139 111 79 216 112 358 112 71 0 79 -2 86 -21z
m-1273 -151 c15 -23 15 -27 -5 -67 -28 -59 -115 -155 -243 -272 -60 -54 -108
-99 -108 -100 0 0 54 0 120 2 83 2 162 -3 258 -17 168 -25 231 -26 324 -5 72
17 94 12 82 -19 -9 -24 -98 -65 -179 -82 -56 -12 -112 -14 -280 -9 -227 7
-423 -6 -495 -31 -121 -43 -180 22 -112 123 30 45 170 171 336 302 58 46 105
85 103 86 -2 2 -30 -1 -63 -6 -94 -16 -194 -12 -234 8 -75 37 -37 110 52 99
24 -3 72 -2 108 2 36 5 122 9 192 10 125 1 128 1 144 -24z m-626 -24 c15 -29
12 -110 -6 -170 -8 -29 -46 -116 -85 -193 -38 -77 -69 -148 -69 -158 0 -34
-12 -50 -37 -50 -60 0 -96 53 -96 140 1 74 31 147 102 250 33 47 77 111 98
142 41 61 73 75 93 39z m-550 -34 c77 -37 121 -76 155 -138 104 -191 -69 -435
-361 -509 -43 -11 -96 -20 -118 -20 -88 0 -87 39 0 65 115 33 232 107 280 177
64 92 41 188 -57 239 -29 14 -134 39 -171 39 -5 0 -8 -20 -8 -45 0 -84 -118
-406 -299 -817 -81 -183 -117 -238 -155 -238 -22 0 -43 33 -50 76 -25 150 176
702 338 928 53 73 55 78 30 72 -93 -24 -114 -16 -114 39 0 96 160 167 365 162
96 -3 117 -6 165 -30z m1858 -449 c19 -19 14 -65 -14 -119 -14 -28 -24 -52
-22 -53 2 -2 86 12 188 31 181 33 229 32 179 0 -21 -14 -315 -126 -404 -154
-26 -8 -34 -22 -77 -134 -27 -68 -66 -173 -87 -232 l-39 -109 27 5 c14 2 94
18 176 35 131 27 412 62 498 62 21 0 28 -4 25 -17 -2 -13 -44 -30 -163 -65
-465 -140 -832 -273 -1388 -505 -459 -191 -504 -204 -577 -166 -44 23 -60 64
-39 101 18 32 24 36 229 117 465 185 923 351 1088 395 l42 11 0 85 c0 97 21
209 56 302 13 35 24 68 24 72 0 4 -24 10 -54 13 -74 7 -96 21 -96 57 0 38 22
49 91 47 104 -3 121 5 174 86 76 114 104 147 129 147 12 0 27 -5 34 -12z
m-1133 -152 c18 -13 18 -17 -9 -166 -15 -84 -25 -154 -22 -157 2 -3 21 0 40 7
36 11 56 8 56 -11 0 -5 -28 -28 -63 -49 l-63 -40 -18 -77 c-37 -160 -75 -260
-107 -287 -30 -25 -73 -33 -95 -18 -36 24 -42 82 -19 193 9 40 14 73 13 75 -2
1 -57 -17 -123 -41 -66 -24 -125 -44 -132 -45 -6 0 -19 -26 -28 -57 -70 -250
-80 -279 -110 -311 -40 -44 -101 -54 -129 -23 -32 35 -33 121 -2 243 14 57 26
108 26 114 0 5 -26 15 -59 22 -61 13 -91 35 -91 69 0 36 31 51 127 64 l91 12
64 125 c113 225 214 361 255 345 27 -11 11 -114 -44 -276 -27 -81 -47 -147
-44 -147 24 0 245 50 251 57 4 4 22 51 39 103 42 121 82 200 127 250 41 45 43
46 69 26z m655 -146 c8 -14 6 -48 -5 -122 -9 -57 -15 -153 -14 -215 1 -61 -2
-116 -5 -122 -15 -23 -51 -9 -97 37 -37 37 -50 58 -55 90 -4 23 -8 42 -10 42
-3 0 -35 -32 -72 -72 -115 -122 -243 -163 -311 -99 -26 24 -31 36 -31 75 0 25
14 85 30 133 17 47 30 95 30 105 0 11 -14 32 -32 48 -40 37 -30 51 41 58 113
10 169 -92 127 -231 -8 -26 -12 -47 -9 -47 11 0 169 109 211 145 23 21 54 59
67 85 50 100 109 139 135 90z"/>
<path d="M5574 2539 c-58 -22 -128 -78 -149 -120 -20 -38 -20 -39 18 -39 43 0
177 64 177 85 0 9 9 34 20 55 19 37 19 40 3 39 -10 0 -41 -9 -69 -20z"/>
</g>
</svg>
